<?xml version="1.0" encoding="UTF-8" standalone="no"?>
<svg
   width="256px"
   height="256px"
   viewBox="0 0 256 256"
   version="1.1"
   preserveAspectRatio="xMidYMid"
   id="svg7"
   sodipodi:docname="Velo.svg"
   inkscape:version="1.4.4 (dcaf3e7d9e, 2026-05-05)"
   xmlns:inkscape="http://www.inkscape.org/namespaces/inkscape"
   xmlns:sodipodi="http://sodipodi.sourceforge.net/DTD/sodipodi-0.dtd"
   xmlns="http://www.w3.org/2000/svg"
   xmlns:svg="http://www.w3.org/2000/svg">
  <defs
     id="defs7" />
  <sodipodi:namedview
     id="namedview7"
     pagecolor="#ffffff"
     bordercolor="#000000"
     borderopacity="0.25"
     inkscape:showpageshadow="2"
     inkscape:pageopacity="0.0"
     inkscape:pagecheckerboard="0"
     inkscape:deskcolor="#d1d1d1"
     inkscape:zoom="1.5742188"
     inkscape:cx="134.98759"
     inkscape:cy="77.498759"
     inkscape:window-width="1093"
     inkscape:window-height="1014"
     inkscape:window-x="0"
     inkscape:window-y="0"
     inkscape:window-maximized="0"
     inkscape:current-layer="svg7" />
  <g
     id="g7">
    <path
       d="M225.84958,128.023789 C225.84958,73.9999493 182.004106,30.1547455 127.980536,30.1547455 C73.9569673,30.1547455 30.1114931,73.9999493 30.1114931,128.023789 C30.1114931,182.047358 73.9569673,225.892832 127.980536,225.892832 C182.004106,225.892832 225.84958,182.047358 225.84958,128.023789"
       fill="#00007D"
       id="path1"
       style="fill:#922992;fill-opacity:1" />
    <path
       d="M197.194881,87.4746864 C197.194881,71.6516156 184.35271,58.8094446 168.529639,58.8094446 C152.706568,58.8094446 139.864397,71.6516156 139.864397,87.4746864 C139.864397,103.297757 152.706568,116.139928 168.529639,116.139928 C184.35271,116.139928 197.194881,103.297757 197.194881,87.4746864"
       fill="#FFFFFF"
       id="path2" />
    <path
       d="M254.515092,30.1544752 C254.515092,14.3314044 241.672921,1.48923337 225.84985,1.48923337 C210.026779,1.48923337 197.184608,14.3314044 197.184608,30.1544752 C197.184608,45.9775459 210.026779,58.819717 225.84985,58.819717 C241.672921,58.819717 254.515092,45.9775459 254.515092,30.1544752"
       fill="#00007D"
       id="path3"
       style="fill:#922992;fill-opacity:1" />
  </g>
  <text
     xml:space="preserve"
     style="font-style:italic;font-variant:normal;font-weight:bold;font-stretch:normal;font-size:65.563px;font-family:'Hack Nerd Font Mono';-inkscape-font-specification:'Hack Nerd Font Mono Bold Italic';writing-mode:lr-tb;direction:ltr;fill:#f9f9f9;fill-opacity:1;stroke-width:2.04885"
     x="-90.609383"
     y="206.17726"
     id="text7"
     transform="rotate(-45)"><tspan
       sodipodi:role="line"
       x="-90.609383"
       y="206.17726"
       style="font-size:65.563px;stroke-width:2.04885"
       id="tspan8">Vel</tspan></text>
</svg>
